# xmcd CD Database Entry
#
# Track frame offsets:
# 150
# 14145
# 28400
# 41165
# 56945
# 73310
# 87553
# 105448
# 117485
# 133373
# 147668
# 163940
#
# Disc length: 2423 seconds
#
# Revision: 1
# Processed by: cddbd v1.4PL0 Copyright (c) Steve Scherf et al.
# Submitted via: tcd 2.0b
#
DISCID=cc09750c
DTITLE=Emmylou Harris/Profile
DYEAR=1900
DGENRE=
TTITLE0=One of These Days
TTITLE1=Sweet Dreams
TTITLE2=To Daddy
TTITLE3=(You Never Can Tell) C'Est La Vie
TTITLE4=Making Believe
TTITLE5=Easy From Now On
TTITLE6=Together Again
TTITLE7=If I Could Only Win Your Love
TTITLE8=Too Far Gone
TTITLE9=Two More Bottles of Wine
TTITLE10=Boulder to Birmingham
TTITLE11=Hello Stranger
EXTD=
EXTT0=
EXTT1=
EXTT2=
EXTT3=
EXTT4=
EXTT5=
EXTT6=
EXTT7=
EXTT8=
EXTT9=
EXTT10=
EXTT11=
PLAYORDER=
